<svg width="24" height="24" viewBox="0 0 24 24" fill="none" xmlns="http://www.w3.org/2000/svg">
<path d="M12.3139 6.18327L11.6641 5.55282C11.5296 5.42231 11.4001 5.29726 11.2744 5.17578C11.0546 4.96343 10.846 4.76199 10.6414 4.56135C9.00067 2.95357 6.7423 2.49837 4.93294 3.2796L4.93278 3.27967C3.11902 4.06238 1.85697 6.05585 1.90106 8.28768L1.90106 8.28774C1.93437 9.97959 2.64322 11.4797 3.67629 12.964L3.67657 12.9644C5.93141 16.2077 8.99031 18.6438 12.2533 21.0297C14.6307 19.2988 16.895 17.5125 18.8502 15.3973L19.5111 16.0082L18.8502 15.3973C20.5093 13.6025 21.8746 11.787 22.4325 9.53903L22.4326 9.53879C23.0206 7.17217 22.0148 4.70661 20.1001 3.55445L12.3139 6.18327ZM12.3139 6.18327L12.9405 5.52965M12.3139 6.18327L12.9405 5.52965M12.9405 5.52965C13.0846 5.37928 13.212 5.24118 13.3317 5.11134C13.5615 4.86215 13.7632 4.64336 14.0019 4.42661L14.0022 4.42629M12.9405 5.52965L14.0022 4.42629M14.0022 4.42629C15.8653 2.73235 18.2782 2.45884 20.0999 3.55435L14.0022 4.42629Z" stroke="black" stroke-width="1.8"/>
</svg>
